# xmcd CD database file
#
# Track frame offsets:
#	183
#	36858
#	62958
#	93933
#	119508
#	128433
#	163233
#	175233
#
# Disc length: 2737 seconds
#
# Revision: 0
# Processed by: cddbd v1.5.2PL0 Copyright (c) Steve Scherf et al.
# Submitted via: CDex 1.51
#
DISCID=690aaf08
DTITLE=Thomas Hufschmidt and Tyron Park - Pepila
DYEAR=1993
DGENRE=Jazz
TTITLE0=Ana
TTITLE1=Nevertheless
TTITLE2=Oaks
TTITLE3=Kirschgarten
TTITLE4=Iceman
TTITLE5=Pepila
TTITLE6=WW 10
TTITLE7=Strangers
EXTD=YEAR: 1993
EXTT0=
EXTT1=
EXTT2=
EXTT3=
EXTT4=
EXTT5=
EXTT6=
EXTT7=
PLAYORDER=
